<?xml version="1.0" encoding="UTF-8" standalone="no"?>
<svg
   xmlns:dc="http://purl.org/dc/elements/1.1/"
   xmlns:cc="http://creativecommons.org/ns#"
   xmlns:rdf="http://www.w3.org/1999/02/22-rdf-syntax-ns#"
   xmlns:svg="http://www.w3.org/2000/svg"
   xmlns="http://www.w3.org/2000/svg"
   viewBox="0 0 35.302666 35.301331"
   height="35.301331"
   width="35.302666"
   xml:space="preserve"
   id="svg2"
   version="1.1"><metadata
     id="metadata8"><rdf:RDF><cc:Work
         rdf:about=""><dc:format>image/svg+xml</dc:format><dc:type
           rdf:resource="http://purl.org/dc/dcmitype/StillImage" /><dc:title></dc:title></cc:Work></rdf:RDF></metadata><defs
     id="defs6"><clipPath
       id="clipPath20"
       clipPathUnits="userSpaceOnUse"><path
         id="path18"
         d="M 45.772,121.271 H 442.475 V 248.208 H 45.772 Z" /></clipPath><clipPath
       id="clipPath68"
       clipPathUnits="userSpaceOnUse"><path
         id="path66"
         d="M 0,339.566 H 483.19 V 0 H 0 Z" /></clipPath></defs><g
     transform="matrix(1.3333333,0,0,-1.3333333,-362.28466,95.349598)"
     id="g10"><g
       transform="translate(273.1065,58.2742)"
       id="g78"><path
         id="path80"
         style="fill:#ffffff;fill-opacity:1;fill-rule:nonzero;stroke:none"
         d="M 0,0 C 0,2.684 0.907,5.153 2.418,7.142 L 7.194,2.94 v -6.288 h 5.1 l 4.203,-4.203 v 2.31 l 3.641,-3.203 c -2.139,-2.101 -5.066,-3.401 -8.293,-3.401 C 5.313,-11.845 0,-6.531 0,0 m 23.691,0 c 0,-2.682 -0.906,-5.149 -2.415,-7.138 l -4.779,4.204 V 7.551 L 12.294,3.348 H 9.355 L 3.557,8.447 c 2.138,2.099 5.063,3.398 8.288,3.398 6.532,0 11.846,-5.314 11.846,-11.845 M 11.845,13.238 C 4.546,13.238 -1.393,7.3 -1.393,0 c 0,-7.3 5.939,-13.238 13.238,-13.238 7.301,0 13.239,5.938 13.239,13.238 0,7.3 -5.938,13.238 -13.239,13.238" /></g></g></svg>