<?xml version="1.0" encoding="UTF-8" standalone="no"?>
<svg
   xmlns:dc="http://purl.org/dc/elements/1.1/"
   xmlns:cc="http://creativecommons.org/ns#"
   xmlns:rdf="http://www.w3.org/1999/02/22-rdf-syntax-ns#"
   xmlns:svg="http://www.w3.org/2000/svg"
   xmlns="http://www.w3.org/2000/svg"
   viewBox="0 0 35.302666 35.302666"
   height="35.302666"
   width="35.302666"
   xml:space="preserve"
   id="svg2"
   version="1.1"><metadata
     id="metadata8"><rdf:RDF><cc:Work
         rdf:about=""><dc:format>image/svg+xml</dc:format><dc:type
           rdf:resource="http://purl.org/dc/dcmitype/StillImage" /><dc:title></dc:title></cc:Work></rdf:RDF></metadata><defs
     id="defs6" /><g
     transform="matrix(1.3333333,0,0,-1.3333333,-317.21399,95.350664)"
     id="g10"><g
       id="g4637"><g
         id="g70"
         transform="translate(251.1485,70.119)"><path
           d="m 0,0 c -6.531,0 -11.845,-5.313 -11.845,-11.845 0,-6.531 5.314,-11.845 11.845,-11.845 6.532,0 11.846,5.314 11.846,11.845 C 11.846,-5.313 6.532,0 0,0 m 0,-25.083 c -7.299,0 -13.238,5.938 -13.238,13.238 0,7.3 5.939,13.239 13.238,13.239 7.301,0 13.239,-5.939 13.239,-13.239 0,-7.3 -5.938,-13.238 -13.239,-13.238"
           style="fill:#ffffff;fill-opacity:1;fill-rule:nonzero;stroke:none"
           id="path72" /></g><g
         id="g74"
         transform="translate(255.8009,65.825)"><path
           d="m 0,0 -4.203,-4.203 h -5.1 v -6.695 h 5.1 L 0,-15.102 Z"
           style="fill:#ffffff;fill-opacity:1;fill-rule:nonzero;stroke:none"
           id="path76" /></g></g></g></svg>